<svg width="25" height="26" viewBox="0 0 25 26" fill="none" xmlns="http://www.w3.org/2000/svg">
<path d="M0.0165443 2.13043C0.0165443 1.77227 0.158823 1.42878 0.412083 1.17552C0.665342 0.922256 1.00884 0.779978 1.367 0.779978H23.6495C23.7383 0.779978 23.8268 0.789091 23.9139 0.806648C23.9534 0.814413 23.9899 0.829269 24.0283 0.84041C24.0746 0.853916 24.1212 0.864719 24.1661 0.883287C24.211 0.901855 24.2515 0.927517 24.294 0.950474C24.3288 0.969719 24.3653 0.984911 24.3984 1.00719C24.5465 1.10623 24.6738 1.23345 24.7728 1.38161C24.7947 1.41435 24.8096 1.45014 24.8285 1.48424C24.8521 1.52712 24.8778 1.56865 24.8967 1.61389C24.9153 1.65845 24.9257 1.70538 24.9392 1.75129C24.9504 1.78944 24.9652 1.82625 24.9733 1.86575C24.9908 1.9529 24.9997 2.04155 25 2.13043V24.413C25 24.7711 24.8577 25.1146 24.6045 25.3679C24.3512 25.6212 24.0077 25.7634 23.6495 25.7634C23.2914 25.7634 22.9479 25.6212 22.6946 25.3679C22.4414 25.1146 22.2991 24.7711 22.2991 24.413V5.39044L2.32178 25.3678C2.1972 25.4967 2.04818 25.5996 1.88342 25.6704C1.71866 25.7412 1.54146 25.7784 1.36214 25.78C1.18283 25.7815 1.005 25.7474 0.839035 25.6795C0.673069 25.6116 0.522287 25.5113 0.395489 25.3845C0.268692 25.2577 0.168417 25.1069 0.100515 24.9409C0.0326138 24.775 -0.0015564 24.5972 1.90735e-06 24.4178C0.00156021 24.2385 0.0388107 24.0613 0.109587 23.8966C0.180363 23.7318 0.283245 23.5828 0.412228 23.4582L20.3895 3.48089H1.367C1.00884 3.48089 0.665342 3.33861 0.412083 3.08535C0.158823 2.83209 0.0165443 2.4886 0.0165443 2.13043Z" fill="#000001"/>
</svg>
